<svg xmlns="http://www.w3.org/2000/svg" version="1.1" xmlns:xlink="http://www.w3.org/1999/xlink" xmlns:svgjs="http://svgjs.dev/svgjs" width="1500" height="939" viewBox="0 0 1500 939"><g transform="matrix(1,0,0,1,-0.9090909090909918,-1.5145161290323017)"><svg viewBox="0 0 396 248" data-background-color="#000000" preserveAspectRatio="xMidYMid meet" height="939" width="1500" xmlns="http://www.w3.org/2000/svg" xmlns:xlink="http://www.w3.org/1999/xlink"><g id="tight-bounds" transform="matrix(1,0,0,1,0.2400000000000091,0.4000000000000057)"><svg viewBox="0 0 395.52 247.2" height="247.2" width="395.52"><rect width="395.52" height="247.2" fill="url(#41bad212-2761-47ba-8bc9-bf96f25ff8d4)" mask="url(#c61dc32c-631f-4db0-8a21-cadfb07ee154)" data-fill-palette-color="tertiary"></rect><g><svg></svg></g><g><svg viewBox="0 0 395.52 247.2" height="247.2" width="395.52"><g transform="matrix(1,0,0,1,75.54432,101.92273082957306)"><svg viewBox="0 0 244.43135999999998 43.35453834085387" height="43.35453834085387" width="244.43135999999998"><g><svg viewBox="0 0 244.43135999999998 43.35453834085387" height="43.35453834085387" width="244.43135999999998"><g><svg viewBox="0 0 244.43135999999998 43.35453834085387" height="43.35453834085387" width="244.43135999999998"><g><svg viewBox="0 0 244.43135999999998 43.35453834085387" height="43.35453834085387" width="244.43135999999998"><g id="textblocktransform"><svg viewBox="0 0 244.43135999999998 43.35453834085387" height="43.35453834085387" width="244.43135999999998" id="textblock"><g><svg viewBox="0 0 244.43135999999998 43.35453834085387" height="43.35453834085387" width="244.43135999999998"><g transform="matrix(1,0,0,1,0,0)"><svg width="244.43135999999998" viewBox="2.25 -25.2 144.04 25.55" height="43.35453834085387" data-palette-color="url(#879c5dc6-52ce-421e-b28c-6d4b98466750)"></svg></g></svg></g></svg></g></svg></g></svg></g></svg></g></svg></g><path d="M186.141 95.923L186.141 34.198 7.337 34.198 7.337 213.002 186.141 213.002 186.141 151.277 182.232 151.277 182.232 209.092 11.247 209.092 11.247 38.108 182.232 38.108 182.232 95.923Z" fill="url(#41bad212-2761-47ba-8bc9-bf96f25ff8d4)" stroke="transparent" data-fill-palette-color="tertiary"></path></svg></g><defs></defs><mask id="3a13defc-c07f-45ff-8e14-5f1394364ce5"><g id="SvgjsG5492"><svg viewBox="0 0 395.52 247.2" height="247.2" width="395.52"><g><svg></svg></g><g><svg viewBox="0 0 395.52 247.2" height="247.2" width="395.52"><g transform="matrix(1,0,0,1,75.54432,101.92273082957306)"><svg viewBox="0 0 244.43135999999998 43.35453834085387" height="43.35453834085387" width="244.43135999999998"><g><svg viewBox="0 0 244.43135999999998 43.35453834085387" height="43.35453834085387" width="244.43135999999998"><g><svg viewBox="0 0 244.43135999999998 43.35453834085387" height="43.35453834085387" width="244.43135999999998"><g><svg viewBox="0 0 244.43135999999998 43.35453834085387" height="43.35453834085387" width="244.43135999999998"><g id="SvgjsG5491"><svg viewBox="0 0 244.43135999999998 43.35453834085387" height="43.35453834085387" width="244.43135999999998" id="SvgjsSvg5490"><g><svg viewBox="0 0 244.43135999999998 43.35453834085387" height="43.35453834085387" width="244.43135999999998"><g transform="matrix(1,0,0,1,0,0)"><svg width="244.43135999999998" viewBox="2.25 -25.2 144.04 25.55" height="43.35453834085387" data-palette-color="url(#879c5dc6-52ce-421e-b28c-6d4b98466750)"><path d="M15.3-25.15Q19.2-25.15 23.15-23.45L23.15-23.45 21.9-19.85 21.45-19.85Q19.6-21.05 18.05-21.53 16.5-22 14.7-22L14.7-22Q10.45-22 8.33-19.6 6.2-17.2 6.2-12.1L6.2-12.1Q6.2-7.2 8.15-5.03 10.1-2.85 14.35-2.85L14.35-2.85Q15.6-2.85 16.75-3.08 17.9-3.3 19.55-3.9L19.55-3.9 19.55-6.4 19.5-9.95 22.95-10.2 22.95-1.2Q17.9 0.3 14.2 0.3L14.2 0.3Q8.3 0.3 5.28-2.88 2.25-6.05 2.25-11.95L2.25-11.95Q2.25-18.35 5.68-21.75 9.1-25.15 15.3-25.15L15.3-25.15ZM40.6-25.2Q46.05-25.2 48.97-22 51.9-18.8 51.9-12.95L51.9-12.95Q51.9-6.6 48.77-3.13 45.65 0.35 39.85 0.35L39.85 0.35Q34.45 0.35 31.5-2.93 28.55-6.2 28.55-12.25L28.55-12.25Q28.55-18.45 31.7-21.83 34.85-25.2 40.6-25.2L40.6-25.2ZM40.25-22.05Q36.3-22.05 34.37-19.8 32.45-17.55 32.45-12.7L32.45-12.7Q32.45-7.5 34.35-5.15 36.25-2.8 40.15-2.8L40.15-2.8Q44.15-2.8 46.1-5.1 48.05-7.4 48.05-12.3L48.05-12.3Q48.05-17.35 46.12-19.7 44.2-22.05 40.25-22.05L40.25-22.05ZM70.34-12.95Q75.9-11.85 75.9-7.05L75.9-7.05Q75.9-3.45 73.09-1.65 70.3 0.15 64.9 0.15L64.9 0.15Q61.65 0.15 58.65 0L58.65 0 58.8-7.5 58.65-24.9 66.45-24.95Q70.2-24.95 72.27-23.38 74.34-21.8 74.34-18.9L74.34-18.9Q74.34-16.75 73.3-15.25 72.25-13.75 70.34-12.95L70.34-12.95ZM70.4-18.45Q70.4-20.3 69.2-21.15 68-22 65.34-22L65.34-22 62.3-22 62.25-14.3 66.7-14.15Q68.55-14.55 69.47-15.58 70.4-16.6 70.4-18.45L70.4-18.45ZM65.34-2.7Q68.59-2.7 70.32-3.83 72.05-4.95 72.05-7.15L72.05-7.15Q72.05-8.95 70.84-9.95 69.65-10.95 67.2-11.3L67.2-11.3 62.25-11.25 62.2-7.8 62.3-2.85Q63.85-2.7 65.34-2.7L65.34-2.7ZM95.89-3.15L96.09-2.8 95.84 0 82.59 0 82.74-7.5 82.59-24.9 86.34-24.9 86.19-7.8 86.29-3.15 95.89-3.15ZM109.59-25.2Q115.04-25.2 117.97-22 120.89-18.8 120.89-12.95L120.89-12.95Q120.89-6.6 117.77-3.13 114.64 0.35 108.84 0.35L108.84 0.35Q103.44 0.35 100.49-2.93 97.54-6.2 97.54-12.25L97.54-12.25Q97.54-18.45 100.69-21.83 103.84-25.2 109.59-25.2L109.59-25.2ZM109.24-22.05Q105.29-22.05 103.37-19.8 101.44-17.55 101.44-12.7L101.44-12.7Q101.44-7.5 103.34-5.15 105.24-2.8 109.14-2.8L109.14-2.8Q113.14-2.8 115.09-5.1 117.04-7.4 117.04-12.3L117.04-12.3Q117.04-17.35 115.12-19.7 113.19-22.05 109.24-22.05L109.24-22.05ZM138.44-25.15Q142.34-25.15 146.29-23.45L146.29-23.45 145.04-19.85 144.59-19.85Q142.74-21.05 141.19-21.53 139.64-22 137.84-22L137.84-22Q133.59-22 131.46-19.6 129.34-17.2 129.34-12.1L129.34-12.1Q129.34-7.2 131.29-5.03 133.24-2.85 137.49-2.85L137.49-2.85Q138.74-2.85 139.89-3.08 141.04-3.3 142.69-3.9L142.69-3.9 142.69-6.4 142.64-9.95 146.09-10.2 146.09-1.2Q141.04 0.3 137.34 0.3L137.34 0.3Q131.44 0.3 128.41-2.88 125.39-6.05 125.39-11.95L125.39-11.95Q125.39-18.35 128.81-21.75 132.24-25.15 138.44-25.15L138.44-25.15Z" opacity="1" transform="matrix(1,0,0,1,0,0)" fill="white" class="wordmark-text-0" id="SvgjsPath5489"></path></svg></g></svg></g></svg></g></svg></g></svg></g></svg></g></svg></g><path d="M186.141 95.923L186.141 34.198 7.337 34.198 7.337 213.002 186.141 213.002 186.141 151.277 182.232 151.277 182.232 209.092 11.247 209.092 11.247 38.108 182.232 38.108 182.232 95.923Z" fill="black" stroke="transparent"></path></svg></g><defs><mask></mask></defs></svg><rect width="395.52" height="247.2" fill="black" stroke="none" visibility="hidden"></rect></g></mask><linearGradient x1="0" x2="1" y1="0.548" y2="0.55" id="879c5dc6-52ce-421e-b28c-6d4b98466750"><stop stop-color="#ff6cab" offset="0"></stop><stop stop-color="#7366ff" offset="1"></stop></linearGradient><rect width="395.52" height="247.2" fill="url(#879c5dc6-52ce-421e-b28c-6d4b98466750)" mask="url(#3a13defc-c07f-45ff-8e14-5f1394364ce5)" data-fill-palette-color="primary"></rect><mask id="c61dc32c-631f-4db0-8a21-cadfb07ee154"><g id="SvgjsG5515"><svg viewBox="0 0 395.52 247.2" height="247.2" width="395.52"><g><svg></svg></g><g><svg viewBox="0 0 395.52 247.2" height="247.2" width="395.52"><g transform="matrix(1,0,0,1,75.54432,101.92273082957306)"><svg viewBox="0 0 244.43135999999998 43.35453834085387" height="43.35453834085387" width="244.43135999999998"><g><svg viewBox="0 0 244.43135999999998 43.35453834085387" height="43.35453834085387" width="244.43135999999998"><g><svg viewBox="0 0 244.43135999999998 43.35453834085387" height="43.35453834085387" width="244.43135999999998"><g><svg viewBox="0 0 244.43135999999998 43.35453834085387" height="43.35453834085387" width="244.43135999999998"><g id="SvgjsG5514"><svg viewBox="0 0 244.43135999999998 43.35453834085387" height="43.35453834085387" width="244.43135999999998" id="SvgjsSvg5513"><g><svg viewBox="0 0 244.43135999999998 43.35453834085387" height="43.35453834085387" width="244.43135999999998"><g transform="matrix(1,0,0,1,0,0)"><svg width="244.43135999999998" viewBox="2.25 -25.2 144.04 25.55" height="43.35453834085387" data-palette-color="url(#879c5dc6-52ce-421e-b28c-6d4b98466750)"></svg></g></svg></g></svg></g></svg></g></svg></g></svg></g></svg></g><path d="M186.141 95.923L186.141 34.198 7.337 34.198 7.337 213.002 186.141 213.002 186.141 151.277 182.232 151.277 182.232 209.092 11.247 209.092 11.247 38.108 182.232 38.108 182.232 95.923Z" fill="white" stroke="transparent"></path></svg></g><defs><mask></mask></defs><mask><g id="SvgjsG5512"><svg viewBox="0 0 395.52 247.2" height="247.2" width="395.52"><g><svg></svg></g><g><svg viewBox="0 0 395.52 247.2" height="247.2" width="395.52"><g transform="matrix(1,0,0,1,75.54432,101.92273082957306)"><svg viewBox="0 0 244.43135999999998 43.35453834085387" height="43.35453834085387" width="244.43135999999998"><g><svg viewBox="0 0 244.43135999999998 43.35453834085387" height="43.35453834085387" width="244.43135999999998"><g><svg viewBox="0 0 244.43135999999998 43.35453834085387" height="43.35453834085387" width="244.43135999999998"><g><svg viewBox="0 0 244.43135999999998 43.35453834085387" height="43.35453834085387" width="244.43135999999998"><g id="SvgjsG5511"><svg viewBox="0 0 244.43135999999998 43.35453834085387" height="43.35453834085387" width="244.43135999999998" id="SvgjsSvg5510"><g><svg viewBox="0 0 244.43135999999998 43.35453834085387" height="43.35453834085387" width="244.43135999999998"><g transform="matrix(1,0,0,1,0,0)"><svg width="244.43135999999998" viewBox="2.25 -25.2 144.04 25.55" height="43.35453834085387" data-palette-color="url(#879c5dc6-52ce-421e-b28c-6d4b98466750)"><path d="M15.3-25.15Q19.2-25.15 23.15-23.45L23.15-23.45 21.9-19.85 21.45-19.85Q19.6-21.05 18.05-21.53 16.5-22 14.7-22L14.7-22Q10.45-22 8.33-19.6 6.2-17.2 6.2-12.1L6.2-12.1Q6.2-7.2 8.15-5.03 10.1-2.85 14.35-2.85L14.35-2.85Q15.6-2.85 16.75-3.08 17.9-3.3 19.55-3.9L19.55-3.9 19.55-6.4 19.5-9.95 22.95-10.2 22.95-1.2Q17.9 0.3 14.2 0.3L14.2 0.3Q8.3 0.3 5.28-2.88 2.25-6.05 2.25-11.95L2.25-11.95Q2.25-18.35 5.68-21.75 9.1-25.15 15.3-25.15L15.3-25.15ZM40.6-25.2Q46.05-25.2 48.97-22 51.9-18.8 51.9-12.95L51.9-12.95Q51.9-6.6 48.77-3.13 45.65 0.35 39.85 0.35L39.85 0.35Q34.45 0.35 31.5-2.93 28.55-6.2 28.55-12.25L28.55-12.25Q28.55-18.45 31.7-21.83 34.85-25.2 40.6-25.2L40.6-25.2ZM40.25-22.05Q36.3-22.05 34.37-19.8 32.45-17.55 32.45-12.7L32.45-12.7Q32.45-7.5 34.35-5.15 36.25-2.8 40.15-2.8L40.15-2.8Q44.15-2.8 46.1-5.1 48.05-7.4 48.05-12.3L48.05-12.3Q48.05-17.35 46.12-19.7 44.2-22.05 40.25-22.05L40.25-22.05ZM70.34-12.95Q75.9-11.85 75.9-7.05L75.9-7.05Q75.9-3.45 73.09-1.65 70.3 0.15 64.9 0.15L64.9 0.15Q61.65 0.15 58.65 0L58.65 0 58.8-7.5 58.65-24.9 66.45-24.95Q70.2-24.95 72.27-23.38 74.34-21.8 74.34-18.9L74.34-18.9Q74.34-16.75 73.3-15.25 72.25-13.75 70.34-12.95L70.34-12.95ZM70.4-18.45Q70.4-20.3 69.2-21.15 68-22 65.34-22L65.34-22 62.3-22 62.25-14.3 66.7-14.15Q68.55-14.55 69.47-15.58 70.4-16.6 70.4-18.45L70.4-18.45ZM65.34-2.7Q68.59-2.7 70.32-3.83 72.05-4.95 72.05-7.15L72.05-7.15Q72.05-8.95 70.84-9.95 69.65-10.95 67.2-11.3L67.2-11.3 62.25-11.25 62.2-7.8 62.3-2.85Q63.85-2.7 65.34-2.7L65.34-2.7ZM95.89-3.15L96.09-2.8 95.84 0 82.59 0 82.74-7.5 82.59-24.9 86.34-24.9 86.19-7.8 86.29-3.15 95.89-3.15ZM109.59-25.2Q115.04-25.2 117.97-22 120.89-18.8 120.89-12.95L120.89-12.95Q120.89-6.6 117.77-3.13 114.64 0.35 108.84 0.35L108.84 0.35Q103.44 0.35 100.49-2.93 97.54-6.2 97.54-12.25L97.54-12.25Q97.54-18.45 100.69-21.83 103.84-25.2 109.59-25.2L109.59-25.2ZM109.24-22.05Q105.29-22.05 103.37-19.8 101.44-17.55 101.44-12.7L101.44-12.7Q101.44-7.5 103.34-5.15 105.24-2.8 109.14-2.8L109.14-2.8Q113.14-2.8 115.09-5.1 117.04-7.4 117.04-12.3L117.04-12.3Q117.04-17.35 115.12-19.7 113.19-22.05 109.24-22.05L109.24-22.05ZM138.44-25.15Q142.34-25.15 146.29-23.45L146.29-23.45 145.04-19.85 144.59-19.85Q142.74-21.05 141.19-21.53 139.64-22 137.84-22L137.84-22Q133.59-22 131.46-19.6 129.34-17.2 129.34-12.1L129.34-12.1Q129.34-7.2 131.29-5.03 133.24-2.85 137.49-2.85L137.49-2.85Q138.74-2.85 139.89-3.08 141.04-3.3 142.69-3.9L142.69-3.9 142.69-6.4 142.64-9.95 146.09-10.2 146.09-1.2Q141.04 0.3 137.34 0.3L137.34 0.3Q131.44 0.3 128.41-2.88 125.39-6.05 125.39-11.95L125.39-11.95Q125.39-18.35 128.81-21.75 132.24-25.15 138.44-25.15L138.44-25.15Z" opacity="1" transform="matrix(1,0,0,1,0,0)" fill="black" class="wordmark-text-0" id="SvgjsPath5509"></path></svg></g></svg></g></svg></g></svg></g></svg></g></svg></g></svg></g><path d="M186.141 95.923L186.141 34.198 7.337 34.198 7.337 213.002 186.141 213.002 186.141 151.277 182.232 151.277 182.232 209.092 11.247 209.092 11.247 38.108 182.232 38.108 182.232 95.923Z" fill="black" stroke="transparent"></path></svg></g><defs><mask></mask></defs></svg><rect width="395.52" height="247.2" fill="black" stroke="none" visibility="hidden"></rect></g></mask></svg><rect width="395.52" height="247.2" fill="black" stroke="none" visibility="hidden"></rect></g></mask><linearGradient x1="0" x2="1" y1="0.548" y2="0.55" id="41bad212-2761-47ba-8bc9-bf96f25ff8d4"><stop stop-color="#ff6cab" offset="0"></stop><stop stop-color="#7366ff" offset="1"></stop></linearGradient></svg><rect width="395.52" height="247.2" fill="none" stroke="none" visibility="hidden"></rect></g></svg></g></svg>